G04 Layer_Physical_Order=1*
G04 Layer_Color=25308*
%FSAX42Y42*%
%MOMM*%
G71*
G01*
G75*
%ADD10R,0.45X0.45*%
%ADD11R,0.90X1.60*%
%ADD12C,0.25*%
%ADD13C,1.50*%
%ADD14R,1.50X1.50*%
%ADD15C,1.55*%
%ADD16R,1.55X1.55*%
%ADD17C,1.22*%
%ADD18C,1.52*%
%ADD19C,1.27*%
D10*
X006530Y008020D02*
D03*
X006450D02*
D03*
X006500Y007670D02*
D03*
X006420D02*
D03*
X006640Y008280D02*
D03*
X006560D02*
D03*
X006510Y006400D02*
D03*
X006590D02*
D03*
X006560Y008410D02*
D03*
X006640D02*
D03*
X008570Y007760D02*
D03*
X008490D02*
D03*
X008570Y007630D02*
D03*
X008490D02*
D03*
X008600Y006720D02*
D03*
X008520D02*
D03*
X008600Y006580D02*
D03*
X008520D02*
D03*
X008610Y006230D02*
D03*
X008530D02*
D03*
D11*
X009625Y007340D02*
D03*
X009355D02*
D03*
X009625Y005640D02*
D03*
X009355D02*
D03*
X009625Y005940D02*
D03*
X009355D02*
D03*
X009625Y006650D02*
D03*
X009355D02*
D03*
X009625Y006990D02*
D03*
X009355D02*
D03*
D12*
X007111Y005891D02*
X007459D01*
X007100Y005880D02*
X007111Y005891D01*
X007100Y007170D02*
X007101Y007171D01*
X007459D01*
X006870Y006004D02*
Y006180D01*
X006860Y005994D02*
X006870Y006004D01*
X006860Y005994D02*
X006860Y005994D01*
X006590Y006400D02*
X007040D01*
X007300Y006140D01*
X006289Y006400D02*
X006510D01*
X006860Y005994D02*
X007236D01*
X006860Y008130D02*
Y008300D01*
X006750Y008410D02*
X006860Y008300D01*
X006640Y008410D02*
X006750D01*
X006640Y007010D02*
X007552D01*
X006640D02*
Y007360D01*
X006640Y008130D02*
X006640Y008130D01*
Y008280D01*
X006560Y008480D02*
X006580Y008500D01*
X009384D01*
X007459Y007171D02*
X007590Y007302D01*
Y007600D01*
X007459Y007731D02*
X007590Y007600D01*
X007459Y007731D02*
Y008221D01*
X006730Y007800D02*
X007280Y008350D01*
X007584D02*
X007713Y008221D01*
X007280Y008350D02*
X007584D01*
X008090Y005740D02*
Y006278D01*
Y005670D02*
Y005740D01*
X007900D02*
X008090D01*
X007840Y005800D02*
X007900Y005740D01*
X007840Y005800D02*
Y006000D01*
X008221Y005170D02*
Y005539D01*
X008090Y005670D02*
X008221Y005539D01*
X007700Y006140D02*
X007840Y006000D01*
X007300Y006140D02*
X007700D01*
X008221Y005891D02*
Y006071D01*
X007967Y005891D02*
Y006023D01*
X007713Y006277D02*
X007967Y006023D01*
X007544Y006060D02*
X007713Y005891D01*
X007302Y006060D02*
X007544D01*
X007236Y005994D02*
X007302Y006060D01*
X009060Y005640D02*
X009355D01*
X008420Y005000D02*
X009060Y005640D01*
X006927Y005000D02*
X008420D01*
X007348Y006520D02*
X007459Y006409D01*
X008090Y007328D02*
X008221Y007459D01*
X008090Y006810D02*
Y007328D01*
X008072Y007310D02*
X008221Y007459D01*
X007920Y007310D02*
X008072D01*
X007840Y007390D02*
X007920Y007310D01*
X008090Y007910D02*
Y008340D01*
X007840Y007660D02*
X008090Y007910D01*
X007840Y007390D02*
Y007660D01*
X007967Y007957D02*
Y008221D01*
X007713Y007703D02*
X007967Y007957D01*
X007713Y007459D02*
Y007703D01*
X007854Y006456D02*
Y006574D01*
X007854Y006456D02*
X007854Y006456D01*
X007854Y006362D02*
Y006456D01*
Y006362D02*
X007854Y006362D01*
Y006574D02*
X008090Y006810D01*
X007854Y006326D02*
Y006362D01*
X007713Y006917D02*
X007967Y007171D01*
X007713Y006409D02*
Y006917D01*
Y006277D02*
Y006409D01*
X007906Y006274D02*
X008080D01*
X009670Y005630D02*
X009760D01*
X009790Y005660D01*
Y005840D01*
X009400Y007760D02*
X009625Y007535D01*
X008570Y007760D02*
X009400D01*
X009625Y005940D02*
Y006105D01*
X009440Y006290D02*
X009625Y006105D01*
X008940Y006290D02*
X009440D01*
X009625Y005640D02*
Y005705D01*
X009355Y005640D02*
Y005940D01*
X008990Y006590D02*
Y007490D01*
X009355Y006990D02*
Y007290D01*
X008990Y006990D02*
X009355D01*
X009490Y007240D02*
X009625Y007105D01*
X009490Y007240D02*
Y007520D01*
X009140Y005940D02*
X009355D01*
X008990Y006090D02*
X009140Y005940D01*
X008990Y007490D02*
X008990Y007490D01*
X008986Y008044D02*
X008990Y008040D01*
X008986Y008044D02*
Y008390D01*
X008600Y006720D02*
X008880Y006440D01*
X009355Y006650D02*
Y006940D01*
X009625Y006450D02*
Y006650D01*
X009380Y007630D02*
X009490Y007520D01*
X008570Y007630D02*
X009380D01*
X008650Y006580D02*
X008940Y006290D01*
X008640Y007920D02*
X009140D01*
X008411Y008149D02*
X008640Y007920D01*
X008411Y008149D02*
Y008341D01*
X009140Y007920D02*
X009240Y008020D01*
X009220Y007850D02*
X009494Y008124D01*
X008610Y007850D02*
X009220D01*
X008360Y008100D02*
X008610Y007850D01*
X008360Y008100D02*
Y008320D01*
X008410Y007760D02*
X008490D01*
X008221Y007949D02*
X008410Y007760D01*
X009240Y008020D02*
Y008390D01*
X008380Y006720D02*
X008520D01*
X008221Y006879D02*
X008380Y006720D01*
X008221Y006879D02*
Y007171D01*
Y007949D02*
Y008221D01*
X008570Y007630D02*
X008570Y007630D01*
X008030D02*
X008490D01*
X007967Y007567D02*
X008030Y007630D01*
X008091Y008441D02*
X008311D01*
X008411Y008341D01*
X008300Y008380D02*
X008360Y008320D01*
X008130Y008380D02*
X008300D01*
X009384Y008500D02*
X009494Y008390D01*
X008090Y008340D02*
X008130Y008380D01*
X008138Y006580D02*
X008530D01*
X007967Y006409D02*
X008138Y006580D01*
X008600Y006580D02*
X008650D01*
X008610Y006230D02*
X009140D01*
X008221Y006071D02*
X008380Y006230D01*
X008530D01*
X008650Y006580D02*
X008650Y006580D01*
X006193Y007518D02*
X007400D01*
X007967Y008221D02*
Y008317D01*
X008091Y008441D01*
X007967Y007459D02*
Y007567D01*
X007854Y006326D02*
X007906Y006274D01*
X008090Y006278D02*
X008221Y006409D01*
X009140Y006230D02*
X009350D01*
X009490Y006090D01*
Y005840D02*
Y006090D01*
X007713Y007425D02*
Y007459D01*
Y007425D02*
X007967Y007171D01*
X009625Y005940D02*
X009740D01*
X009490Y005840D02*
X009625Y005705D01*
X007400Y007518D02*
X007459Y007459D01*
X007552Y007010D02*
X007713Y007171D01*
X009790Y005840D02*
X009880Y005930D01*
X009740Y005940D02*
X009986Y006186D01*
X008880Y006440D02*
X010190D01*
X009880Y005930D02*
X010190D01*
X009494Y008358D02*
X010190Y007662D01*
X009494Y008358D02*
Y008390D01*
Y008124D02*
Y008358D01*
X006193Y005994D02*
X006860D01*
X006190Y005991D02*
X006193Y005994D01*
X007181Y006409D02*
X007459D01*
X007070Y006520D02*
X007181Y006409D01*
X006590Y006520D02*
X007070D01*
X006510Y006440D02*
X006590Y006520D01*
X006510Y006400D02*
Y006440D01*
X006190Y006499D02*
X006289Y006400D01*
X006193Y007010D02*
X006640D01*
X006190Y007007D02*
X006193Y007010D01*
X006190Y005737D02*
X006927Y005000D01*
X007158Y005590D02*
X007459Y005891D01*
X006190Y005737D02*
X006743D01*
X006890Y005590D01*
X007158D01*
X006135Y006245D02*
X006190D01*
X006073Y006753D02*
X006190D01*
X006010Y006933D02*
X006190Y006753D01*
X006010Y006933D02*
Y007170D01*
X006101Y007261D01*
X006190D01*
X006010Y006425D02*
X006190Y006245D01*
X006010Y006425D02*
Y006690D01*
X006073Y006753D01*
X006010Y005917D02*
X006190Y005737D01*
X006010Y005917D02*
Y006120D01*
X006135Y006245D01*
X006000Y007451D02*
X006190Y007261D01*
Y008023D02*
X006193Y008026D01*
X006550Y008280D02*
X006560D01*
X006000Y007579D02*
X006190Y007769D01*
X006000Y007451D02*
Y007579D01*
X006190Y007515D02*
X006193Y007518D01*
X006345Y007670D01*
X006520Y008240D02*
X006560Y008280D01*
X006560Y008280D02*
Y008480D01*
X006190Y008023D02*
X006213D01*
X006360Y008170D01*
X006460D01*
X006530Y008100D01*
Y008020D02*
Y008100D01*
Y007850D02*
Y008020D01*
Y007850D02*
X006580Y007800D01*
X006730D01*
X006450Y007858D02*
Y008020D01*
Y007858D02*
X006559Y007749D01*
X006621D01*
X006670Y007700D01*
X006640Y007670D02*
X006670Y007700D01*
X006345Y007670D02*
X006420D01*
X006500D02*
X006640D01*
X006500D02*
Y007740D01*
X006350Y007890D02*
X006500Y007740D01*
X006030Y007890D02*
X006350D01*
X006000Y007920D02*
X006030Y007890D01*
X006100Y008240D02*
X006520D01*
X006000Y008140D02*
X006100Y008240D01*
X006000Y007920D02*
Y008140D01*
X010190Y007202D02*
Y007662D01*
X009986Y006186D02*
X010190D01*
X009355Y005525D02*
Y005640D01*
Y005525D02*
X009410Y005470D01*
X009720D01*
X009940Y005690D01*
X010178D01*
X010190Y005678D01*
X009625Y006990D02*
X009760D01*
X010030Y006720D01*
X010164D01*
X010190Y006694D01*
X009625Y006990D02*
Y007105D01*
Y007340D02*
X010017Y006948D01*
X010190D01*
X009625Y007340D02*
Y007535D01*
X007680Y004760D02*
X009180D01*
X005640Y005600D02*
Y008490D01*
X006110D01*
X009970Y008610D02*
X010370Y008210D01*
X010790Y007790D01*
Y005170D02*
Y007790D01*
X006975Y004490D02*
X007185D01*
X009665Y004500D02*
X009895D01*
X010120D01*
X010790Y005170D01*
X009180Y004760D02*
X009440Y004500D01*
X009665D01*
X005640Y005600D02*
X006750Y004490D01*
X006975D01*
X007185D02*
X007410D01*
X007680Y004760D01*
X006110Y008490D02*
X006650Y009030D01*
X007675Y009330D02*
X008525D01*
X009550Y009030D02*
X009970Y008610D01*
X007375Y009030D02*
X007675Y009330D01*
X006650Y009030D02*
X007375D01*
X008525Y009330D02*
X008825Y009030D01*
X009550D01*
D13*
X007459Y007459D02*
D03*
X007713D02*
D03*
X007967D02*
D03*
X008221D02*
D03*
X007459Y008221D02*
D03*
X007713D02*
D03*
X007967D02*
D03*
X007459Y006409D02*
D03*
X007713D02*
D03*
X007967D02*
D03*
X008221D02*
D03*
X007459Y007171D02*
D03*
X007713D02*
D03*
X007967D02*
D03*
X007459Y005129D02*
D03*
X007713D02*
D03*
X007967D02*
D03*
X008221D02*
D03*
X007459Y005891D02*
D03*
X007713D02*
D03*
X007967D02*
D03*
D14*
X008221Y008221D02*
D03*
Y007171D02*
D03*
Y005891D02*
D03*
D15*
X010190Y005678D02*
D03*
Y005932D02*
D03*
Y006186D02*
D03*
Y006440D02*
D03*
Y006694D02*
D03*
Y006948D02*
D03*
X006190Y007769D02*
D03*
Y007515D02*
D03*
Y007261D02*
D03*
Y007007D02*
D03*
Y006753D02*
D03*
Y006499D02*
D03*
Y006245D02*
D03*
Y005991D02*
D03*
Y005737D02*
D03*
D16*
X010190Y007202D02*
D03*
X006190Y008023D02*
D03*
D17*
X009240Y008390D02*
D03*
X009494D02*
D03*
X008986D02*
D03*
D18*
X008070Y009030D02*
D03*
X009800Y004880D02*
D03*
X007040Y004710D02*
D03*
D19*
X007100Y005880D02*
D03*
Y007170D02*
D03*
X006870Y006180D02*
D03*
X006860Y008130D02*
D03*
X006640Y007360D02*
D03*
X006640Y008130D02*
D03*
X008990Y006090D02*
D03*
X008990Y006590D02*
D03*
Y007490D02*
D03*
Y008040D02*
D03*
M02*
