G04 Layer_Physical_Order=2*
G04 Layer_Color=11436288*
%FSAX42Y42*%
%MOMM*%
G71*
G01*
G75*
%ADD12C,0.25*%
%ADD13C,1.50*%
%ADD14R,1.50X1.50*%
%ADD15C,1.55*%
%ADD16R,1.55X1.55*%
%ADD17C,1.22*%
%ADD18C,1.52*%
%ADD19C,1.27*%
D12*
X007100Y005880D02*
Y007170D01*
X006870Y006180D02*
Y006180D01*
X006860Y006170D02*
X006870Y006180D01*
X006860Y006170D02*
Y008130D01*
X006640Y007360D02*
X006640Y007360D01*
X006640Y007360D02*
Y008130D01*
X008990Y006090D02*
Y006590D01*
X008990Y006590D02*
X008990Y006590D01*
X008990Y007490D02*
Y008040D01*
X000000Y018500D02*
Y024000D01*
D13*
X007459Y007459D02*
D03*
X007713D02*
D03*
X007967D02*
D03*
X008221D02*
D03*
X007459Y008221D02*
D03*
X007713D02*
D03*
X007967D02*
D03*
X007459Y006409D02*
D03*
X007713D02*
D03*
X007967D02*
D03*
X008221D02*
D03*
X007459Y007171D02*
D03*
X007713D02*
D03*
X007967D02*
D03*
X007459Y005129D02*
D03*
X007713D02*
D03*
X007967D02*
D03*
X008221D02*
D03*
X007459Y005891D02*
D03*
X007713D02*
D03*
X007967D02*
D03*
D14*
X008221Y008221D02*
D03*
Y007171D02*
D03*
Y005891D02*
D03*
D15*
X010190Y005678D02*
D03*
Y005932D02*
D03*
Y006186D02*
D03*
Y006440D02*
D03*
Y006694D02*
D03*
Y006948D02*
D03*
X006190Y007769D02*
D03*
Y007515D02*
D03*
Y007261D02*
D03*
Y007007D02*
D03*
Y006753D02*
D03*
Y006499D02*
D03*
Y006245D02*
D03*
Y005991D02*
D03*
Y005737D02*
D03*
D16*
X010190Y007202D02*
D03*
X006190Y008023D02*
D03*
D17*
X009240Y008390D02*
D03*
X009494D02*
D03*
X008986D02*
D03*
D18*
X008070Y009030D02*
D03*
X009800Y004880D02*
D03*
X007040Y004710D02*
D03*
D19*
X007100Y005880D02*
D03*
Y007170D02*
D03*
X006870Y006180D02*
D03*
X006860Y008130D02*
D03*
X006640Y007360D02*
D03*
X006640Y008130D02*
D03*
X008990Y006090D02*
D03*
X008990Y006590D02*
D03*
Y007490D02*
D03*
Y008040D02*
D03*
M02*
