M48
;Layer_Color=6321
;FILE_FORMAT=4:2
METRIC
;TYPE=PLATED
T1F00S00C0.71
T2F00S00C0.81
T3F00S00C0.90
T4F00S00C1.02
T5F00S00C1.05
T6F00S00C2.00
%
T01
X008990Y006090
X008990Y006590
Y007490
X007100Y007170
X006640Y007360
X006870Y006180
X007100Y005880
X006860Y008130
X006640Y008130
X008990Y008040
T02
X008986Y008390
X009240
X009494
T03
X007967Y005129
X008221
Y005891
X007967
Y006409
X008221
Y007171
X007967
Y007459
X008221
X007713
X007459
Y007171
X007713
Y006409
X007459
Y005891
X007713
Y005129
X007459
Y008221
X007713
X007967
X008221
T04
X010190Y005678
Y005932
Y006186
Y006440
Y006694
Y006948
Y007202
T05
X006190Y005737
Y005991
Y006245
Y006499
Y006753
Y007007
Y007261
Y007515
Y007769
Y008023
T06
X009800Y004880
X007040Y004710
X008070Y009030
M30
